<svg width="102" height="102" viewBox="0 0 102 102" fill="none" xmlns="http://www.w3.org/2000/svg">
<rect width="102" height="102" rx="51" fill="#F43DA0" fill-opacity="0.1"/>
<path d="M48.6471 81.0469C49.4268 81.0469 50.0588 80.4068 50.0588 79.6172C50.0588 78.8276 49.4268 78.1875 48.6471 78.1875C33.8328 78.1875 21.8235 66.0257 21.8235 51.0234C21.8235 36.0211 33.8328 23.8594 48.6471 23.8594C63.4613 23.8594 75.4706 36.0211 75.4706 51.0234C75.4706 51.813 76.1027 52.4531 76.8824 52.4531C77.6621 52.4531 78.2941 51.813 78.2941 51.0234C78.2941 34.442 65.0207 21 48.6471 21C32.2735 21 19 34.442 19 51.0234C19 67.6049 32.2735 81.0469 48.6471 81.0469Z" fill="#F43DA0"/>
<path d="M48.647 81.0469V78.1875C44.996 78.1875 41.2352 66.0002 41.2352 51.0234C41.2352 36.0467 44.996 23.8594 48.647 23.8594C52.298 23.8594 56.0588 36.0467 56.0588 51.0234H58.8823C58.8823 34.4164 54.7422 21 48.647 21C42.5518 21 38.4117 34.4164 38.4117 51.0234C38.4117 67.6305 42.5518 81.0469 48.647 81.0469Z" fill="#F43DA0"/>
<path d="M24.9659 64.8468C24.2661 65.1949 23.9774 66.0516 24.3211 66.7603C24.6649 67.4691 25.5109 67.7614 26.2107 67.4133C30.9068 65.0774 39.0719 63.5529 48.1541 63.4233C48.9337 63.4122 49.5568 62.7631 49.5458 61.9736C49.5348 61.1841 48.8939 60.5531 48.1143 60.5642C38.6493 60.6993 30.0921 62.297 24.9659 64.8468Z" fill="#F43DA0"/>
<path d="M25.0583 37.1476L26.3031 34.5811C31.2311 37.0323 39.9446 38.5801 49.5205 38.5801C58.7323 38.5801 67.1578 37.1492 72.1903 34.8425L73.3546 37.4474C67.9084 39.9438 59.1014 41.4395 49.5205 41.4395C39.5496 41.4395 30.4301 39.8195 25.0583 37.1476Z" fill="#F43DA0"/>
<path d="M21.3529 52.4531C20.5732 52.4531 19.9412 51.813 19.9412 51.0234C19.9412 50.2338 20.5732 49.5938 21.3529 49.5938H76.8332C77.6129 49.5938 78.245 50.2338 78.245 51.0234C78.245 51.813 77.6129 52.4531 76.8332 52.4531H21.3529Z" fill="#F43DA0"/>
<path d="M56.6471 60.0781V62.9375H80.1765V60.0781H56.6471ZM53.8236 57.2188H83.0001V65.7969H53.8236V57.2188Z" fill="#F43DA0"/>
<path d="M57.5882 65.7969V79.1406H79.2353V65.7969H57.5882ZM56.647 62.9375H80.1765C81.216 62.9375 82.0588 63.791 82.0588 64.8437V80.0937C82.0588 81.1465 81.216 82 80.1765 82H56.647C55.6075 82 54.7647 81.1465 54.7647 80.0937V64.8437C54.7647 63.791 55.6075 62.9375 56.647 62.9375Z" fill="#F43DA0"/>
</svg>
