<svg width="102" height="102" viewBox="0 0 102 102" fill="none" xmlns="http://www.w3.org/2000/svg">
<rect width="102" height="102" rx="51" fill="#3DCAF4" fill-opacity="0.11"/>
<path d="M83.8474 54.2354L76.4198 40.5536C76.2128 40.1684 75.8224 39.9296 75.3943 39.9296H68.1831L71.6052 26.6914C71.7722 26.0406 71.4006 25.3727 70.7726 25.1996L62.9993 23.0424C62.3737 22.8669 61.7316 23.252 61.5622 23.9053L58.6951 34.9765C57.0558 33.0801 54.6991 31.8638 52.0531 31.8638C51.2534 31.8638 50.4914 32.01 49.7505 32.2148V29.2849C49.7505 28.6097 49.226 28.0661 48.5745 28.0661H34.86C34.2085 28.0661 33.684 28.6097 33.684 29.2849V39.9296H26.6045C26.1788 39.9296 25.786 40.1684 25.579 40.5536L18.1514 54.2354C17.9468 54.6108 17.9492 55.0739 18.1608 55.4493C18.3725 55.8198 18.7583 56.0513 19.1769 56.0513H25.8425V78.7812C25.8425 79.4516 26.3693 80 27.0185 80H74.0584C74.7052 80 75.2344 79.4516 75.2344 78.7812V56.0513H82.8243C83.2429 56.0513 83.6286 55.8198 83.8403 55.4493C84.0497 55.0739 84.0544 54.6108 83.8474 54.2354ZM63.5285 25.7115L69.0275 27.2374L65.7464 39.9296H60.8943C60.7978 39.2007 60.6426 38.4939 60.3933 37.826L63.5285 25.7115ZM58.5423 39.9296H45.5616C46.119 36.734 48.8097 34.2989 52.0531 34.2989C55.2942 34.2989 57.9848 36.734 58.5423 39.9296ZM36.036 30.5037H47.4009V33.2507C45.15 34.6816 43.5742 37.0996 43.212 39.9296H36.036V30.5037ZM27.2936 42.3671H58.1166L52.0108 53.6138H21.1879L27.2936 42.3671ZM28.1945 56.0513H52.7023C53.128 56.0513 53.5208 55.8125 53.7277 55.4298L58.9562 45.8016V77.5625H28.1945V56.0513ZM72.8824 77.5625H61.3059V45.8016L66.532 55.4298C66.7413 55.8125 67.1318 56.0513 67.5575 56.0513H72.8847V77.5625H72.8824ZM68.2419 53.6138L62.1385 42.3671H74.7075L80.811 53.6138H68.2419Z" fill="#3DCAF4"/>
<path d="M42.4923 64.8921H32.3834C31.7319 64.8921 31.2074 65.4381 31.2074 66.1109V73.2211C31.2074 73.8914 31.7319 74.4399 32.3834 74.4399H42.4923C43.1414 74.4399 43.6683 73.8914 43.6683 73.2211V66.1109C43.6683 65.4381 43.1414 64.8921 42.4923 64.8921ZM41.3163 72.0023H33.5594V67.3296H41.3163V72.0023Z" fill="#3DCAF4"/>
</svg>
