<svg width="102" height="102" viewBox="0 0 102 102" fill="none" xmlns="http://www.w3.org/2000/svg">
<rect width="102" height="102" rx="51" fill="#3D4FF4" fill-opacity="0.11"/>
<path d="M80.1667 63.4574H65.5833V48.8386H72.3481L80.1667 57.7955V63.4574ZM68.5 60.5337H77.25V58.8948L71.0236 51.7624H68.5V60.5337Z" fill="#3D4FF4"/>
<path d="M32.0417 80.9999C28.0213 80.9999 24.75 77.7207 24.75 73.6905C24.75 69.6603 28.0213 66.3811 32.0417 66.3811C36.0635 66.3811 39.3348 69.6603 39.3348 73.6905C39.3348 77.7207 36.0635 80.9999 32.0417 80.9999ZM32.0417 69.3049C29.6291 69.3049 27.6667 71.2721 27.6667 73.6905C27.6667 76.1089 29.6291 78.0762 32.0417 78.0762C34.4542 78.0762 36.4181 76.1089 36.4181 73.6905C36.4181 71.2721 34.4542 69.3049 32.0417 69.3049Z" fill="#3D4FF4"/>
<path d="M72.875 80.9999C68.8546 80.9999 65.5833 77.7207 65.5833 73.6905C65.5833 69.6603 68.8546 66.3811 72.875 66.3811C76.8954 66.3811 80.1667 69.6603 80.1667 73.6905C80.1667 77.7207 76.8954 80.9999 72.875 80.9999ZM72.875 69.3049C70.4625 69.3049 68.5 71.2721 68.5 73.6905C68.5 76.1089 70.4625 78.0762 72.875 78.0762C75.2875 78.0762 77.25 76.1089 77.25 73.6905C77.25 71.2721 75.2875 69.3049 72.875 69.3049Z" fill="#3D4FF4"/>
<path d="M86 75.1524H77.25V73.6905C77.25 71.2721 75.2875 69.3049 72.875 69.3049C70.4625 69.3049 68.5 71.2721 68.5 73.6905V75.1524H59.75V42.991H74.9956L86 55.5983V75.1524ZM80.02 72.2286H83.0833V56.6975L73.6711 45.9147H62.6667V72.2286H65.73C66.4079 68.8966 69.3531 66.3811 72.875 66.3811C76.3969 66.3811 79.3421 68.8966 80.02 72.2286Z" fill="#3D4FF4"/>
<path d="M42.5149 61.9327H27.6667C26.0588 61.9327 24.75 60.6207 24.75 59.0089V23.9238C24.75 22.312 26.0588 21 27.6667 21H51C52.6079 21 53.9167 22.312 53.9167 23.9238V52.0936L42.5149 61.9327ZM51 23.9209L27.6667 23.9238V59.0089H41.4325L51 50.7516V23.9209Z" fill="#3D4FF4"/>
<path d="M62.6667 75.1524H36.4181V73.6905C36.4181 71.2721 34.4542 69.3048 32.0417 69.3048C29.6292 69.3048 27.6667 71.2721 27.6667 73.6905V75.1524H20.375C17.9625 75.1524 16 73.1851 16 70.7667V35.6815C16 33.2632 17.9625 31.2959 20.375 31.2959H27.6667V59.0089H41.4325L51 50.7515V31.2959H58.2917C60.7042 31.2959 62.6667 33.2632 62.6667 35.6815V75.1524ZM39.1881 72.2286H59.75V35.6815C59.75 34.8749 59.0963 34.2197 58.2917 34.2197H53.9167V52.0935L42.5149 61.9326H27.6667C26.0588 61.9326 24.75 60.6206 24.75 59.0089V34.2197H20.375C19.5704 34.2197 18.9167 34.8749 18.9167 35.6815V70.7667C18.9167 71.5733 19.5704 72.2286 20.375 72.2286H24.8967C25.5746 68.8965 28.5197 66.3811 32.0417 66.3811C35.5636 66.3811 38.5102 68.8965 39.1881 72.2286Z" fill="#3D4FF4"/>
<path d="M42.2499 61.9328C42.042 61.9328 41.8341 61.8885 41.6375 61.7986C41.122 61.5588 40.7916 61.0405 40.7916 60.4709V52.8845C40.7916 51.2913 41.8027 50.3005 43.432 50.3005H52.4583C53.0692 50.3005 53.6161 50.6831 53.8269 51.257C54.0377 51.8324 53.8682 52.4791 53.4039 52.876L43.1956 61.5845C42.9264 61.8143 42.5903 61.9328 42.2499 61.9328ZM43.7125 53.2243L43.7097 57.3059L48.4948 53.2243H43.7125Z" fill="#3D4FF4"/>
<path d="M46.6251 31.2961H32.0417C31.2357 31.2961 30.5834 30.6422 30.5834 29.8342C30.5834 29.0262 31.2357 28.3723 32.0417 28.3723H46.6251C47.4311 28.3723 48.0834 29.0262 48.0834 29.8342C48.0834 30.6422 47.4311 31.2961 46.6251 31.2961Z" fill="#3D4FF4"/>
<path d="M46.6251 38.6054H32.0417C31.2357 38.6054 30.5834 37.9516 30.5834 37.1435C30.5834 36.3355 31.2357 35.6816 32.0417 35.6816H46.6251C47.4311 35.6816 48.0834 36.3355 48.0834 37.1435C48.0834 37.9516 47.4311 38.6054 46.6251 38.6054Z" fill="#3D4FF4"/>
<path d="M46.6251 45.9147H32.0417C31.2357 45.9147 30.5834 45.2609 30.5834 44.4529C30.5834 43.6448 31.2357 42.991 32.0417 42.991H46.6251C47.4311 42.991 48.0834 43.6448 48.0834 44.4529C48.0834 45.2609 47.4311 45.9147 46.6251 45.9147Z" fill="#3D4FF4"/>
</svg>
