<svg width="102" height="102" viewBox="0 0 102 102" fill="none" xmlns="http://www.w3.org/2000/svg">
<rect width="102" height="102" rx="51" fill="#F22323" fill-opacity="0.11"/>
<path d="M19.2535 62.1339L19.2371 62.1263L19.2205 62.1191C18.8172 61.9442 18.5 61.5096 18.5 60.9229V39.2658L34.418 46.6608V69.151L19.2535 62.1339Z" stroke="#F22323" stroke-width="3"/>
<path d="M39.3147 25.6306L39.3164 25.6314L53.6471 32.2034L38.8122 39.0499L23.9713 32.2007L38.2396 25.6304L38.2648 25.6188L38.2895 25.6063C38.5509 25.474 38.9155 25.447 39.3147 25.6306Z" stroke="#F22323" stroke-width="3"/>
<path d="M43.0652 60.5351V46.6623L59.0537 39.2622V52.8381C52.9275 53.5599 47.3506 56.3347 43.0652 60.5351Z" stroke="#F22323" stroke-width="3"/>
<path d="M42.3417 74.2846L43.7731 74.733C46.3327 66.5617 53.8768 60.994 62.3184 60.994H66.1303H67.6303V59.494V54.7067C67.6303 54.5087 67.7816 54.2432 67.9863 54.1273C68.2931 53.9961 68.5201 54.0592 68.6613 54.1704L68.6613 54.1704L68.6694 54.1768L82.2932 64.7517L82.3501 64.7959L82.411 64.8344C82.4383 64.8517 82.4563 64.8718 82.471 64.9047C82.4875 64.9413 82.5084 65.0154 82.4967 65.1341L82.4894 65.2077V65.2816C82.4894 65.3964 82.4053 65.638 82.1835 65.8419L68.5988 76.3864L68.5866 76.3959L68.5746 76.4056C68.5128 76.4557 68.4307 76.5001 68.248 76.5001C68.2265 76.5001 68.1782 76.4965 68.1183 76.4831C68.058 76.4695 68.0197 76.4535 68.0077 76.4474C67.7665 76.3253 67.6303 76.1051 67.6303 75.8565V71.0692V69.5692H66.1303H62.8126C57.935 69.5692 53.2055 70.6173 48.7788 72.6337L48.771 72.6373L48.7632 72.6409L43.9083 74.92C43.8777 74.9328 43.8659 74.93 43.8637 74.9294C43.8636 74.9294 43.8635 74.9294 43.8634 74.9294C43.8547 74.9278 43.8342 74.921 43.8106 74.8995C43.7872 74.8781 43.7728 74.8531 43.7665 74.8315C43.7621 74.8163 43.7562 74.7869 43.7736 74.7313L42.3417 74.2846ZM42.3417 74.2846C41.9181 75.6422 43.2593 76.8569 44.5299 76.2852L69.5892 52.9918C68.9539 52.4917 68.1068 52.4202 67.3303 52.7775C66.6244 53.1347 66.1303 53.9207 66.1303 54.7067V57.994V59.494H64.6303H62.3184C53.2124 59.494 45.0946 65.496 42.3417 74.2846Z" stroke="#F22323" stroke-width="3"/>
</svg>
