<svg width="102" height="102" viewBox="0 0 102 102" fill="none" xmlns="http://www.w3.org/2000/svg">
<rect width="102" height="102" rx="51" fill="#F4953D" fill-opacity="0.11"/>
<path d="M86 50.5072C85.9997 50.3018 85.9554 50.0988 85.8699 49.9117C85.7844 49.7245 85.6597 49.5576 85.5042 49.422L82.8645 47.1214C81.948 39.3748 78.1967 32.2315 72.3226 27.0476C66.4485 21.8637 58.8606 19 50.999 19C43.1373 19 35.5494 21.8637 29.6753 27.0476C23.8012 32.2315 20.0499 39.3748 19.1334 47.1214L16.4938 49.422C16.3386 49.5578 16.2143 49.7248 16.1292 49.9119C16.044 50.099 16 50.302 16 50.5072C16 50.7125 16.044 50.9155 16.1292 51.1026C16.2143 51.2897 16.3386 51.4566 16.4938 51.5924L19.1334 53.8786C20.0499 61.6252 23.8012 68.7685 29.6753 73.9524C35.5494 79.1363 43.1373 82 50.999 82C58.8606 82 66.4485 79.1363 72.3226 73.9524C78.1967 68.7685 81.948 61.6252 82.8645 53.8786L85.5042 51.5924C85.6597 51.4568 85.7844 51.2899 85.8699 51.1028C85.9554 50.9157 85.9997 50.7127 86 50.5072ZM72.8746 53.4011H62.666V47.6134H72.8746C73.2614 47.6134 73.6323 47.4609 73.9058 47.1896C74.1793 46.9182 74.333 46.5502 74.333 46.1665V43.562L82.3249 50.5072L74.333 57.4525V54.848C74.333 54.4643 74.1793 54.0962 73.9058 53.8249C73.6323 53.5535 73.2614 53.4011 72.8746 53.4011ZM75.2518 40.509C74.9159 40.2209 74.5038 40.0345 74.0643 39.9719C73.6248 39.9094 73.1764 39.9733 72.7725 40.1562C72.3686 40.339 72.026 40.6331 71.7856 41.0034C71.5452 41.3738 71.417 41.8048 71.4162 42.2453V44.7195H62.4764C62.3451 42.7083 62.1409 40.726 61.8784 38.8016C66.2537 37.5552 70.3275 35.4384 73.8517 32.5799C76.5658 35.9715 78.4704 39.9289 79.4227 44.1552L75.2518 40.509ZM50.999 79.4457C48.0822 79.4457 45.0488 73.5133 43.4154 64.3543C48.4103 63.2544 53.5876 63.2544 58.5825 64.3543C56.9491 73.5133 53.9157 79.4457 50.999 79.4457ZM61.4118 65.0922C65.2461 66.2305 68.8184 68.1034 71.9267 70.605C67.7651 74.8929 62.372 77.8033 56.4824 78.9393C58.7283 75.8139 60.3909 70.7642 61.4118 65.0922ZM45.5155 78.9248C39.6238 77.8036 34.2278 74.8968 30.0712 70.605C33.1766 68.1072 36.7433 66.2346 40.5716 65.0922C41.607 70.7642 43.2696 75.8139 45.5155 78.9248ZM50.999 60.6357C48.3029 60.6471 45.6151 60.9331 42.9779 61.4894C42.5438 58.3282 42.3003 55.1441 42.2487 51.9542H59.7492C59.7073 55.1484 59.4735 58.3372 59.0492 61.5038C56.4041 60.9338 53.7057 60.6428 50.999 60.6357ZM50.999 21.5688C53.9157 21.5688 56.9491 27.5012 58.5825 36.6602C56.091 37.1996 53.549 37.476 50.999 37.4849C48.4489 37.476 45.9069 37.1996 43.4154 36.6602C45.0488 27.5012 48.0822 21.5688 50.999 21.5688ZM56.4824 22.0752C62.372 23.2112 67.7651 26.1215 71.9267 30.4095C68.8184 32.9111 65.2461 34.784 61.4118 35.9223C60.3909 30.2503 58.7283 25.2006 56.4824 22.0752ZM50.999 40.3788C53.696 40.3697 56.3845 40.0787 59.02 39.5106C59.4541 42.6766 59.6976 45.8655 59.7492 49.0603H42.2487C42.2906 45.8661 42.5244 42.6772 42.9487 39.5106C45.5938 40.0807 48.2922 40.3717 50.999 40.3788ZM45.5155 22.0897C43.2696 25.2006 41.607 30.1924 40.5861 35.9223C36.7489 34.7838 33.1757 32.9056 30.0712 30.395C34.2327 26.1124 39.6272 23.2114 45.5155 22.0897ZM28.1608 32.5799C31.6768 35.4424 35.7467 37.5599 40.1195 38.8016C39.857 40.726 39.6528 42.7083 39.5215 44.7195H30.5817V42.2453C30.5809 41.8048 30.4527 41.3738 30.2123 41.0034C29.9719 40.6331 29.6293 40.339 29.2254 40.1562C28.8215 39.9733 28.3731 39.9094 27.9336 39.9719C27.4941 40.0345 27.082 40.2209 26.7461 40.509L22.6044 44.1118C23.567 39.905 25.4654 35.9649 28.1608 32.5799ZM19.673 50.5072L27.6649 43.562V46.1665C27.6649 46.5502 27.8186 46.9182 28.0921 47.1896C28.3656 47.4609 28.7365 47.6134 29.1233 47.6134H39.3319V53.4011H29.1233C28.7365 53.4011 28.3656 53.5535 28.0921 53.8249C27.8186 54.0962 27.6649 54.4643 27.6649 54.848V57.4525L19.673 50.5072ZM26.7461 60.5055C27.151 60.8567 27.6669 61.0563 28.2045 61.0698C28.5358 61.0667 28.8631 60.9979 29.167 60.8672C29.5844 60.6939 29.9411 60.4025 30.1927 60.0294C30.4442 59.6564 30.5795 59.218 30.5817 58.7692V56.2949H39.5215C39.6528 58.2917 39.857 60.274 40.1195 62.1984C35.7482 63.4509 31.6794 65.5727 28.1608 68.4346C25.4544 65.0382 23.5506 61.0826 22.5898 56.8592L26.7461 60.5055ZM73.8517 68.4346C70.3275 65.5761 66.2537 63.4592 61.8784 62.2128C62.1409 60.2884 62.3451 58.3062 62.4764 56.2949H71.4162V58.7692C71.4134 59.2116 71.5401 59.6453 71.7808 60.0177C72.0216 60.3901 72.3661 60.6852 72.7725 60.8672C73.0765 60.9979 73.4038 61.0667 73.7351 61.0698C74.2727 61.0563 74.7886 60.8567 75.1934 60.5055L79.3644 56.8737C78.4274 61.0899 76.543 65.0418 73.8517 68.4346Z" fill="#F4953D"/>
</svg>
