<svg width="102" height="102" viewBox="0 0 102 102" fill="none" xmlns="http://www.w3.org/2000/svg">
<rect width="102" height="102" rx="51" fill="#3DF491" fill-opacity="0.11"/>
<path d="M74 26V25C74 22.243 71.757 20 69 20C66.243 20 64 22.243 64 25V26H30V52H23C21.346 52 20 53.346 20 55C20 57.414 21.721 59.434 24 59.899V61C24 62.654 25.346 64 27 64H27.573L24.419 72.673C24.141 73.437 24 74.236 24 75.049C24 78.866 27.093 81.972 31 81.998V82H82V26H74ZM66 42V30H68V42H66ZM71.557 44L69.416 49.712C69.285 50.056 68.714 50.056 68.585 49.712L66.443 44H71.557ZM72 42H70V30H72V42ZM69 22C70.654 22 72 23.346 72 25V28H66V25C66 23.346 67.346 22 69 22ZM22 55C22 54.448 22.448 54 23 54H39C39.552 54 40 54.448 40 55C40 56.654 38.654 58 37 58H25C23.346 58 22 56.654 22 55ZM26 61V60H36V61C36 61.552 35.552 62 35 62H27C26.448 62 26 61.552 26 61ZM26 75.049C26 74.47 26.101 73.901 26.298 73.357L29.7 64H32.3L35.702 73.356C35.899 73.9 36 74.47 36 75.049C36 77.779 33.779 80 30.951 80C28.221 80 26 77.779 26 75.049ZM80 80H35.92C37.202 78.738 38 76.986 38 75.049C38 74.236 37.859 73.437 37.581 72.673L34.427 64H35C36.654 64 38 62.654 38 61V59.899C40.279 59.434 42 57.415 42 55C42 53.346 40.654 52 39 52H32V28H64V43.182L66.713 50.415C67.069 51.363 67.988 52 69 52C70.012 52 70.931 51.363 71.288 50.415L74 43.182V28H80V80Z" fill="#3DF491" stroke="#3DF491" stroke-width="0.5"/>
<path d="M73.9999 53.5859L71.9849 55.6009C70.1689 54.5519 68.1179 53.9999 65.9999 53.9999C59.3829 53.9999 53.9999 59.3829 53.9999 65.9999C53.9999 68.1179 54.5519 70.1689 55.6009 71.9849L53.5859 73.9999L57.9999 78.4139L60.0149 76.3989C61.8309 77.4479 63.8819 77.9999 65.9999 77.9999C72.6169 77.9999 77.9999 72.6169 77.9999 65.9999C77.9999 63.8819 77.4479 61.8309 76.3989 60.0149L78.4139 57.9999L73.9999 53.5859ZM55.9999 65.9999C55.9999 60.4859 60.4859 55.9999 65.9999 55.9999C67.5809 55.9999 69.1109 56.3809 70.5009 57.0849L68.9929 58.5929C68.0409 58.2059 67.0389 57.9999 65.9999 57.9999C61.5889 57.9999 57.9999 61.5889 57.9999 65.9999C57.9999 67.0389 58.2059 68.0409 58.5939 68.9919L57.0859 70.4999C56.3809 69.1109 55.9999 67.5809 55.9999 65.9999ZM60.1689 67.4169C60.0569 66.9559 59.9999 66.4829 59.9999 65.9999C59.9999 62.6909 62.6909 59.9999 65.9999 59.9999C66.4829 59.9999 66.9559 60.0569 67.4169 60.1689L60.1689 67.4169ZM56.4139 73.9999L73.9999 56.4139L75.5859 57.9999L57.9999 75.5859L56.4139 73.9999ZM71.9999 65.9999C71.9999 69.3089 69.3089 71.9999 65.9999 71.9999C65.5169 71.9999 65.0439 71.9429 64.5829 71.8309L71.8299 64.5839C71.9429 65.0439 71.9999 65.5169 71.9999 65.9999ZM75.9999 65.9999C75.9999 71.5139 71.5139 75.9999 65.9999 75.9999C64.4189 75.9999 62.8889 75.6189 61.4989 74.9149L63.0069 73.4069C63.9589 73.7939 64.9609 73.9999 65.9999 73.9999C70.4109 73.9999 73.9999 70.4109 73.9999 65.9999C73.9999 64.9609 73.7939 63.9589 73.4059 63.0079L74.9139 61.4999C75.6189 62.8889 75.9999 64.4189 75.9999 65.9999Z" fill="#3DF491" stroke="#3DF491" stroke-width="0.5"/>
<path d="M60 47V33C60 31.346 58.654 30 57 30H39C37.346 30 36 31.346 36 33V47C36 48.654 37.346 50 39 50H57C58.654 50 60 48.654 60 47ZM44 32H52V36H44V32ZM38 47V33C38 32.448 38.448 32 39 32H42V38H54V32H57C57.552 32 58 32.448 58 33V47C58 47.552 57.552 48 57 48H39C38.448 48 38 47.552 38 47Z" fill="#3DF491" stroke="#3DF491" stroke-width="0.5"/>
<path d="M52 52H44V54H52V52Z" fill="#3DF491" stroke="#3DF491" stroke-width="0.5"/>
<path d="M52 56H44V58H52V56Z" fill="#3DF491" stroke="#3DF491" stroke-width="0.5"/>
<path d="M52 60H44V62H52V60Z" fill="#3DF491" stroke="#3DF491" stroke-width="0.5"/>
<path d="M51.9999 64H39.9999V66H51.9999V64Z" fill="#3DF491" stroke="#3DF491" stroke-width="0.5"/>
<path d="M51.9999 68H39.9999V70H51.9999V68Z" fill="#3DF491" stroke="#3DF491" stroke-width="0.5"/>
<path d="M51.9999 72H39.9999V74H51.9999V72Z" fill="#3DF491" stroke="#3DF491" stroke-width="0.5"/>
<path d="M51.9999 76H39.9999V78H51.9999V76Z" fill="#3DF491" stroke="#3DF491" stroke-width="0.5"/>
</svg>
